M48
; DRILL file {KiCad 7.0.10} date Wed Mar 20 10:30:24 2024
; FORMAT={-:-/ absolute / metric / decimal}
; #@! TF.CreationDate,2024-03-20T10:30:24+05:30
; #@! TF.GenerationSoftware,Kicad,Pcbnew,7.0.10
; #@! TF.FileFunction,Plated,1,2,PTH
FMAT,2
METRIC
; #@! TA.AperFunction,Plated,PTH,ViaDrill
T1C0.700
; #@! TA.AperFunction,Plated,PTH,ComponentDrill
T2C1.000
%
G90
G05
T1
X114.66Y-60.24
X142.951Y-29.844
X143.625Y-41.095
X150.0Y-37.0
X151.631Y-31.475
T2
X106.033Y-34.44
X106.033Y-36.98
X107.0Y-45.0
X107.0Y-47.54
X107.0Y-50.08
X107.0Y-52.62
X107.0Y-55.16
X107.0Y-57.7
X107.0Y-60.24
X107.0Y-62.78
X119.837Y-30.886
X119.837Y-33.426
X119.837Y-35.966
X119.837Y-38.506
X119.837Y-41.046
X119.837Y-43.586
X119.837Y-46.126
X119.837Y-48.666
X119.837Y-51.206
X119.837Y-53.746
X119.837Y-56.286
X119.837Y-58.826
X119.837Y-61.366
X119.837Y-63.906
X119.837Y-66.446
X119.837Y-71.526
X119.837Y-74.066
X119.837Y-76.606
X119.837Y-79.146
X119.879Y-68.986
X137.617Y-30.886
X137.617Y-33.426
X137.617Y-35.966
X137.617Y-38.506
X137.617Y-41.046
X137.617Y-43.586
X137.617Y-46.126
X137.617Y-48.666
X137.617Y-51.206
X137.617Y-53.746
X137.617Y-56.286
X137.617Y-58.826
X137.617Y-61.366
X137.617Y-63.906
X137.617Y-66.446
X137.617Y-68.986
X137.617Y-71.526
X137.617Y-74.066
X137.617Y-76.606
X137.617Y-79.146
X148.011Y-68.303
X148.011Y-73.383
X148.215Y-56.619
X148.215Y-61.699
X148.858Y-41.054
X148.858Y-43.594
X148.858Y-46.134
X148.858Y-48.674
X153.091Y-68.303
X153.091Y-73.383
X153.295Y-56.619
X153.295Y-61.699
M30
