%TF.GenerationSoftware,KiCad,Pcbnew,7.0.10*%
%TF.CreationDate,2024-03-20T10:30:33+05:30*%
%TF.ProjectId,TopSide_PCB,546f7053-6964-4655-9f50-43422e6b6963,rev?*%
%TF.SameCoordinates,Original*%
%TF.FileFunction,Copper,L1,Top*%
%TF.FilePolarity,Positive*%
%FSLAX46Y46*%
G04 Gerber Fmt 4.6, Leading zero omitted, Abs format (unit mm)*
G04 Created by KiCad (PCBNEW 7.0.10) date 2024-03-20 10:30:33*
%MOMM*%
%LPD*%
G01*
G04 APERTURE LIST*
G04 Aperture macros list*
%AMRoundRect*
0 Rectangle with rounded corners*
0 $1 Rounding radius*
0 $2 $3 $4 $5 $6 $7 $8 $9 X,Y pos of 4 corners*
0 Add a 4 corners polygon primitive as box body*
4,1,4,$2,$3,$4,$5,$6,$7,$8,$9,$2,$3,0*
0 Add four circle primitives for the rounded corners*
1,1,$1+$1,$2,$3*
1,1,$1+$1,$4,$5*
1,1,$1+$1,$6,$7*
1,1,$1+$1,$8,$9*
0 Add four rect primitives between the rounded corners*
20,1,$1+$1,$2,$3,$4,$5,0*
20,1,$1+$1,$4,$5,$6,$7,0*
20,1,$1+$1,$6,$7,$8,$9,0*
20,1,$1+$1,$8,$9,$2,$3,0*%
G04 Aperture macros list end*
%TA.AperFunction,SMDPad,CuDef*%
%ADD10RoundRect,0.200000X-0.200000X-0.275000X0.200000X-0.275000X0.200000X0.275000X-0.200000X0.275000X0*%
%TD*%
%TA.AperFunction,ComponentPad*%
%ADD11C,1.600000*%
%TD*%
%TA.AperFunction,ComponentPad*%
%ADD12RoundRect,0.200000X-0.600000X-0.600000X0.600000X-0.600000X0.600000X0.600000X-0.600000X0.600000X0*%
%TD*%
%TA.AperFunction,ComponentPad*%
%ADD13R,1.700000X1.700000*%
%TD*%
%TA.AperFunction,ComponentPad*%
%ADD14O,1.700000X1.700000*%
%TD*%
%TA.AperFunction,ViaPad*%
%ADD15C,1.000000*%
%TD*%
%TA.AperFunction,Conductor*%
%ADD16C,0.700000*%
%TD*%
%TA.AperFunction,Conductor*%
%ADD17C,0.500000*%
%TD*%
%TA.AperFunction,Profile*%
%ADD18C,0.100000*%
%TD*%
G04 APERTURE END LIST*
D10*
%TO.P,R1,1*%
%TO.N,Net-(U1-GP26)*%
X149971244Y-34279042D03*
%TO.P,R1,2*%
%TO.N,Net-(J2-Pin_1)*%
X151621244Y-34279042D03*
%TD*%
D11*
%TO.P,U1,1,GP0*%
%TO.N,unconnected-(U1-GP0-Pad1)*%
X119837200Y-30886400D03*
%TO.P,U1,2,GP1*%
%TO.N,unconnected-(U1-GP1-Pad2)*%
X119837200Y-33426400D03*
D12*
%TO.P,U1,3,GND*%
%TO.N,/GND*%
X119837200Y-35966400D03*
D11*
%TO.P,U1,4,GP2*%
%TO.N,/RST*%
X119837200Y-38506400D03*
%TO.P,U1,5,GP3*%
%TO.N,unconnected-(U1-GP3-Pad5)*%
X119837200Y-41046400D03*
%TO.P,U1,6,GP4*%
%TO.N,/MISO*%
X119837200Y-43586400D03*
%TO.P,U1,7,GP5*%
%TO.N,/SDA*%
X119837200Y-46126400D03*
D12*
%TO.P,U1,8,GND*%
%TO.N,unconnected-(U1-GND-Pad8)*%
X119837200Y-48666400D03*
D11*
%TO.P,U1,9,GP6*%
%TO.N,/SCK*%
X119837200Y-51206400D03*
%TO.P,U1,10,GP7*%
%TO.N,/MOSI*%
X119837200Y-53746400D03*
%TO.P,U1,11,GP8*%
%TO.N,unconnected-(U1-GP8-Pad11)*%
X119837200Y-56286400D03*
%TO.P,U1,12,GP9*%
%TO.N,unconnected-(U1-GP9-Pad12)*%
X119837200Y-58826400D03*
D12*
%TO.P,U1,13,GND*%
%TO.N,unconnected-(U1-GND-Pad13)*%
X119837200Y-61366400D03*
D11*
%TO.P,U1,14,GP10*%
%TO.N,unconnected-(U1-GP10-Pad14)*%
X119837200Y-63906400D03*
%TO.P,U1,15,GP11*%
%TO.N,unconnected-(U1-GP11-Pad15)*%
X119837200Y-66446400D03*
%TO.P,U1,16,GP12*%
%TO.N,unconnected-(U1-GP12-Pad16)*%
X119879081Y-68986400D03*
%TO.P,U1,17,GP13*%
%TO.N,unconnected-(U1-GP13-Pad17)*%
X119837200Y-71526400D03*
D12*
%TO.P,U1,18,GND*%
%TO.N,unconnected-(U1-GND-Pad18)*%
X119837200Y-74066400D03*
D11*
%TO.P,U1,19,GP14*%
%TO.N,unconnected-(U1-GP14-Pad19)*%
X119837200Y-76606400D03*
%TO.P,U1,20,GP15*%
%TO.N,unconnected-(U1-GP15-Pad20)*%
X119837200Y-79146400D03*
%TO.P,U1,21,GP16*%
%TO.N,Net-(U1-GP16)*%
X137617200Y-79146400D03*
%TO.P,U1,22,GP17*%
%TO.N,unconnected-(U1-GP17-Pad22)*%
X137617200Y-76606400D03*
D12*
%TO.P,U1,23,GND*%
%TO.N,unconnected-(U1-GND-Pad23)*%
X137617200Y-74066400D03*
D11*
%TO.P,U1,24,GP18*%
%TO.N,Net-(U1-GP18)*%
X137617200Y-71526400D03*
%TO.P,U1,25,GP19*%
%TO.N,unconnected-(U1-GP19-Pad25)*%
X137617200Y-68986400D03*
%TO.P,U1,26,GP20*%
%TO.N,Net-(U1-GP20)*%
X137617200Y-66446400D03*
%TO.P,U1,27,GP21*%
%TO.N,Net-(U1-GP21)*%
X137617200Y-63906400D03*
D12*
%TO.P,U1,28,GND*%
%TO.N,unconnected-(U1-GND-Pad28)*%
X137617200Y-61366400D03*
D11*
%TO.P,U1,29,GP22*%
%TO.N,unconnected-(U1-GP22-Pad29)*%
X137617200Y-58826400D03*
%TO.P,U1,30,RUN*%
%TO.N,unconnected-(U1-RUN-Pad30)*%
X137617200Y-56286400D03*
%TO.P,U1,31,GP26*%
%TO.N,Net-(U1-GP26)*%
X137617200Y-53746400D03*
%TO.P,U1,32,GP27*%
%TO.N,unconnected-(U1-GP27-Pad32)*%
X137617200Y-51206400D03*
D12*
%TO.P,U1,33,GND*%
%TO.N,Net-(U2-GND)*%
X137617200Y-48666400D03*
D11*
%TO.P,U1,34,GP28*%
%TO.N,unconnected-(U1-GP28-Pad34)*%
X137617200Y-46126400D03*
%TO.P,U1,35,___adc-vref*%
%TO.N,unconnected-(U1-___adc-vref-Pad35)*%
X137617200Y-43586400D03*
%TO.P,U1,36,3V3(OUT)*%
%TO.N,/3V3*%
X137617200Y-41046400D03*
%TO.P,U1,37,3V3_EN*%
%TO.N,unconnected-(U1-3V3_EN-Pad37)*%
X137617200Y-38506400D03*
D12*
%TO.P,U1,38,GND*%
%TO.N,Net-(J2-Pin_2)*%
X137617200Y-35966400D03*
D11*
%TO.P,U1,39,VSYS*%
%TO.N,Net-(J2-Pin_1)*%
X137617200Y-33426400D03*
%TO.P,U1,40,VBUS*%
%TO.N,unconnected-(U1-VBUS-Pad40)*%
X137617200Y-30886400D03*
%TD*%
D13*
%TO.P,U2,1,VCC*%
%TO.N,/3V3*%
X148857600Y-41054000D03*
D14*
%TO.P,U2,2,GND*%
%TO.N,Net-(U2-GND)*%
X148857600Y-43594000D03*
%TO.P,U2,3,SCL*%
%TO.N,Net-(U1-GP21)*%
X148857600Y-46134000D03*
%TO.P,U2,4,SDA*%
%TO.N,Net-(U1-GP20)*%
X148857600Y-48674000D03*
%TD*%
D11*
%TO.P,B2,1,ON*%
%TO.N,unconnected-(B2-ON-Pad1)*%
X148011310Y-68302873D03*
%TO.P,B2,2,OFF*%
%TO.N,Net-(U1-GP16)*%
X148011310Y-73382873D03*
%TO.P,B2,3,OFF*%
%TO.N,unconnected-(B2-OFF-Pad3)*%
X153091310Y-73382873D03*
%TO.P,B2,4,ON*%
%TO.N,/3V3*%
X153091310Y-68302873D03*
%TD*%
D13*
%TO.P,J2,1,Pin_1*%
%TO.N,Net-(J2-Pin_1)*%
X106033200Y-36980000D03*
D14*
%TO.P,J2,2,Pin_2*%
%TO.N,Net-(J2-Pin_2)*%
X106033200Y-34440000D03*
%TD*%
D13*
%TO.P,J1,1,Pin_1*%
%TO.N,/SDA*%
X107000000Y-62780000D03*
D14*
%TO.P,J1,2,Pin_2*%
%TO.N,/SCK*%
X107000000Y-60240000D03*
%TO.P,J1,3,Pin_3*%
%TO.N,/MOSI*%
X107000000Y-57700000D03*
%TO.P,J1,4,Pin_4*%
%TO.N,/MISO*%
X107000000Y-55160000D03*
%TO.P,J1,5,Pin_5*%
%TO.N,/IRQ*%
X107000000Y-52620000D03*
%TO.P,J1,6,Pin_6*%
%TO.N,/RST*%
X107000000Y-50080000D03*
%TO.P,J1,7,Pin_7*%
%TO.N,/GND*%
X107000000Y-47540000D03*
%TO.P,J1,8,Pin_8*%
%TO.N,/3V3*%
X107000000Y-45000000D03*
%TD*%
D11*
%TO.P,B1,1,ON*%
%TO.N,/3V3*%
X148214510Y-56618873D03*
%TO.P,B1,2,OFF*%
%TO.N,Net-(U1-GP18)*%
X148214510Y-61698873D03*
%TO.P,B1,3,OFF*%
%TO.N,unconnected-(B1-OFF-Pad3)*%
X153294510Y-61698873D03*
%TO.P,B1,4,ON*%
%TO.N,unconnected-(B1-ON-Pad4)*%
X153294510Y-56618873D03*
%TD*%
D15*
%TO.N,/3V3*%
X143625200Y-41094800D03*
%TO.N,/SCK*%
X114660000Y-60240000D03*
%TO.N,Net-(J2-Pin_1)*%
X142951205Y-29844086D03*
X151631278Y-31474887D03*
%TO.N,Net-(U1-GP26)*%
X150000000Y-37000000D03*
%TD*%
D16*
%TO.N,/3V3*%
X154522200Y-51177800D02*
X154962200Y-51177800D01*
X154962200Y-51177800D02*
X155092200Y-51307800D01*
X156413200Y-52628800D02*
X155092200Y-51307800D01*
X155092200Y-51307800D02*
X154742200Y-50957800D01*
X154742200Y-50957800D02*
X154522200Y-51177800D01*
X152377800Y-51177800D02*
X148214510Y-55341090D01*
X152927800Y-50627800D02*
X152377800Y-51177800D01*
X154742200Y-50957800D02*
X154442200Y-50657800D01*
X154522200Y-51177800D02*
X152377800Y-51177800D01*
X152927800Y-50627800D02*
X152957800Y-50657800D01*
X154442200Y-50657800D02*
X153670000Y-49885600D01*
X152957800Y-50657800D02*
X154442200Y-50657800D01*
X153670000Y-49885600D02*
X152927800Y-50627800D01*
X156413200Y-66751200D02*
X156413200Y-52628800D01*
X154861527Y-68302873D02*
X156413200Y-66751200D01*
X153091310Y-68302873D02*
X154861527Y-68302873D01*
X148857600Y-41054000D02*
X151681200Y-41054000D01*
X151688800Y-41046400D02*
X153670000Y-43027600D01*
X148850000Y-41046400D02*
X148857600Y-41054000D01*
X148214510Y-55341090D02*
X148214510Y-56618873D01*
X143625200Y-41094800D02*
X143673600Y-41046400D01*
X151681200Y-41054000D02*
X151688800Y-41046400D01*
X137617200Y-41046400D02*
X143576800Y-41046400D01*
X143576800Y-41046400D02*
X143625200Y-41094800D01*
X143673600Y-41046400D02*
X148850000Y-41046400D01*
X153670000Y-43027600D02*
X153670000Y-49885600D01*
%TO.N,Net-(U1-GP18)*%
X143459200Y-68630800D02*
X143459200Y-63855600D01*
X145615927Y-61698873D02*
X148214510Y-61698873D01*
X143459200Y-63855600D02*
X145615927Y-61698873D01*
X140563600Y-71526400D02*
X143459200Y-68630800D01*
X137617200Y-71526400D02*
X140563600Y-71526400D01*
%TO.N,Net-(U1-GP16)*%
X148011310Y-77248602D02*
X148011310Y-73382873D01*
X146113512Y-79146400D02*
X148011310Y-77248602D01*
X137617200Y-79146400D02*
X146113512Y-79146400D01*
%TO.N,/SCK*%
X107000000Y-60240000D02*
X114660000Y-60240000D01*
X114740000Y-60240000D02*
X114660000Y-60240000D01*
%TO.N,/MOSI*%
X117653600Y-53746400D02*
X119837200Y-53746400D01*
X113700000Y-57700000D02*
X117653600Y-53746400D01*
X107000000Y-57700000D02*
X113700000Y-57700000D01*
%TO.N,/MISO*%
X115500000Y-45700000D02*
X115500000Y-52300000D01*
X117613600Y-43586400D02*
X115500000Y-45700000D01*
X119837200Y-43586400D02*
X117613600Y-43586400D01*
X112640000Y-55160000D02*
X107000000Y-55160000D01*
X115500000Y-52300000D02*
X112640000Y-55160000D01*
%TO.N,/RST*%
X114000000Y-42221200D02*
X114000000Y-45700000D01*
X109700000Y-50000000D02*
X107080000Y-50000000D01*
X107080000Y-50000000D02*
X107000000Y-50080000D01*
X114000000Y-45700000D02*
X109700000Y-50000000D01*
X117714800Y-38506400D02*
X114000000Y-42221200D01*
X119837200Y-38506400D02*
X117714800Y-38506400D01*
%TO.N,/GND*%
X109460000Y-47540000D02*
X107000000Y-47540000D01*
X111986740Y-41734060D02*
X111986740Y-45013260D01*
X119837200Y-35966400D02*
X117754400Y-35966400D01*
X111986740Y-45013260D02*
X109460000Y-47540000D01*
X117754400Y-35966400D02*
X111986740Y-41734060D01*
%TO.N,Net-(J2-Pin_1)*%
X117260000Y-26159600D02*
X140272400Y-26159600D01*
X142914000Y-29881291D02*
X142951205Y-29844086D01*
X141336800Y-33426400D02*
X142914000Y-31849200D01*
X151631278Y-34269008D02*
X151621244Y-34279042D01*
X151631278Y-31474887D02*
X151631278Y-34269008D01*
X142914000Y-28801200D02*
X140272400Y-26159600D01*
X137617200Y-33426400D02*
X141336800Y-33426400D01*
X106439600Y-36980000D02*
X106033200Y-36980000D01*
X117260000Y-26159600D02*
X106439600Y-36980000D01*
X142951205Y-29844086D02*
X142914000Y-29806881D01*
X142914000Y-29806881D02*
X142914000Y-28801200D01*
X142914000Y-31849200D02*
X142914000Y-29881291D01*
%TO.N,Net-(J2-Pin_2)*%
X106033200Y-34440000D02*
X116294800Y-24178400D01*
X144895200Y-33017600D02*
X144895200Y-27937600D01*
X141136000Y-24178400D02*
X116294800Y-24178400D01*
X144895200Y-27937600D02*
X141136000Y-24178400D01*
X141946400Y-35966400D02*
X144895200Y-33017600D01*
X137617200Y-35966400D02*
X141946400Y-35966400D01*
%TO.N,Net-(U1-GP20)*%
X145850400Y-48674000D02*
X148857600Y-48674000D01*
X138748570Y-66446400D02*
X142660000Y-62534970D01*
X137617200Y-66446400D02*
X138748570Y-66446400D01*
X142660000Y-51864400D02*
X145850400Y-48674000D01*
X142660000Y-62534970D02*
X142660000Y-51864400D01*
%TO.N,Net-(U1-GP21)*%
X141288400Y-49984800D02*
X145139200Y-46134000D01*
X141288400Y-61366570D02*
X141288400Y-49984800D01*
X137617200Y-63906400D02*
X138748570Y-63906400D01*
X138748570Y-63906400D02*
X141288400Y-61366570D01*
X145139200Y-46134000D02*
X148857600Y-46134000D01*
D17*
%TO.N,Net-(U1-GP26)*%
X150000000Y-37000000D02*
X150000000Y-34307798D01*
X150000000Y-34307798D02*
X149971244Y-34279042D01*
D16*
%TO.N,Net-(U2-GND)*%
X139914400Y-48666400D02*
X144996800Y-43584000D01*
X144996800Y-43584000D02*
X145006800Y-43594000D01*
X137617200Y-48666400D02*
X139914400Y-48666400D01*
X145006800Y-43594000D02*
X148857600Y-43594000D01*
%TD*%
D18*
X102260400Y-21386800D02*
X159207200Y-21386800D01*
X159207200Y-85648800D01*
X102260400Y-85648800D01*
X102260400Y-21386800D01*
M02*
