%TF.GenerationSoftware,KiCad,Pcbnew,7.0.10*%
%TF.CreationDate,2024-03-20T10:30:33+05:30*%
%TF.ProjectId,TopSide_PCB,546f7053-6964-4655-9f50-43422e6b6963,rev?*%
%TF.SameCoordinates,Original*%
%TF.FileFunction,Legend,Top*%
%TF.FilePolarity,Positive*%
%FSLAX46Y46*%
G04 Gerber Fmt 4.6, Leading zero omitted, Abs format (unit mm)*
G04 Created by KiCad (PCBNEW 7.0.10) date 2024-03-20 10:30:33*
%MOMM*%
%LPD*%
G01*
G04 APERTURE LIST*
G04 Aperture macros list*
%AMRoundRect*
0 Rectangle with rounded corners*
0 $1 Rounding radius*
0 $2 $3 $4 $5 $6 $7 $8 $9 X,Y pos of 4 corners*
0 Add a 4 corners polygon primitive as box body*
4,1,4,$2,$3,$4,$5,$6,$7,$8,$9,$2,$3,0*
0 Add four circle primitives for the rounded corners*
1,1,$1+$1,$2,$3*
1,1,$1+$1,$4,$5*
1,1,$1+$1,$6,$7*
1,1,$1+$1,$8,$9*
0 Add four rect primitives between the rounded corners*
20,1,$1+$1,$2,$3,$4,$5,0*
20,1,$1+$1,$4,$5,$6,$7,0*
20,1,$1+$1,$6,$7,$8,$9,0*
20,1,$1+$1,$8,$9,$2,$3,0*%
G04 Aperture macros list end*
%ADD10C,0.150000*%
%ADD11C,0.100000*%
%ADD12C,0.120000*%
%ADD13C,0.127000*%
%ADD14C,3.000000*%
%ADD15RoundRect,0.200000X-0.200000X-0.275000X0.200000X-0.275000X0.200000X0.275000X-0.200000X0.275000X0*%
%ADD16C,1.600000*%
%ADD17RoundRect,0.200000X-0.600000X-0.600000X0.600000X-0.600000X0.600000X0.600000X-0.600000X0.600000X0*%
%ADD18R,1.700000X1.700000*%
%ADD19O,1.700000X1.700000*%
%TA.AperFunction,Profile*%
%ADD20C,0.100000*%
%TD*%
G04 APERTURE END LIST*
D10*
X153238095Y-22454819D02*
X153238095Y-21454819D01*
X153238095Y-21931009D02*
X153809523Y-21931009D01*
X153809523Y-22454819D02*
X153809523Y-21454819D01*
X154714285Y-21788152D02*
X154714285Y-22454819D01*
X154476190Y-21407200D02*
X154238095Y-22121485D01*
X154238095Y-22121485D02*
X154857142Y-22121485D01*
X153238095Y-78454819D02*
X153238095Y-77454819D01*
X153238095Y-77931009D02*
X153809523Y-77931009D01*
X153809523Y-78454819D02*
X153809523Y-77454819D01*
X154190476Y-77454819D02*
X154809523Y-77454819D01*
X154809523Y-77454819D02*
X154476190Y-77835771D01*
X154476190Y-77835771D02*
X154619047Y-77835771D01*
X154619047Y-77835771D02*
X154714285Y-77883390D01*
X154714285Y-77883390D02*
X154761904Y-77931009D01*
X154761904Y-77931009D02*
X154809523Y-78026247D01*
X154809523Y-78026247D02*
X154809523Y-78264342D01*
X154809523Y-78264342D02*
X154761904Y-78359580D01*
X154761904Y-78359580D02*
X154714285Y-78407200D01*
X154714285Y-78407200D02*
X154619047Y-78454819D01*
X154619047Y-78454819D02*
X154333333Y-78454819D01*
X154333333Y-78454819D02*
X154238095Y-78407200D01*
X154238095Y-78407200D02*
X154190476Y-78359580D01*
X106238095Y-78454819D02*
X106238095Y-77454819D01*
X106238095Y-77931009D02*
X106809523Y-77931009D01*
X106809523Y-78454819D02*
X106809523Y-77454819D01*
X107238095Y-77550057D02*
X107285714Y-77502438D01*
X107285714Y-77502438D02*
X107380952Y-77454819D01*
X107380952Y-77454819D02*
X107619047Y-77454819D01*
X107619047Y-77454819D02*
X107714285Y-77502438D01*
X107714285Y-77502438D02*
X107761904Y-77550057D01*
X107761904Y-77550057D02*
X107809523Y-77645295D01*
X107809523Y-77645295D02*
X107809523Y-77740533D01*
X107809523Y-77740533D02*
X107761904Y-77883390D01*
X107761904Y-77883390D02*
X107190476Y-78454819D01*
X107190476Y-78454819D02*
X107809523Y-78454819D01*
X106238095Y-22454819D02*
X106238095Y-21454819D01*
X106238095Y-21931009D02*
X106809523Y-21931009D01*
X106809523Y-22454819D02*
X106809523Y-21454819D01*
X107809523Y-22454819D02*
X107238095Y-22454819D01*
X107523809Y-22454819D02*
X107523809Y-21454819D01*
X107523809Y-21454819D02*
X107428571Y-21597676D01*
X107428571Y-21597676D02*
X107333333Y-21692914D01*
X107333333Y-21692914D02*
X107238095Y-21740533D01*
X147833333Y-35454819D02*
X147500000Y-34978628D01*
X147261905Y-35454819D02*
X147261905Y-34454819D01*
X147261905Y-34454819D02*
X147642857Y-34454819D01*
X147642857Y-34454819D02*
X147738095Y-34502438D01*
X147738095Y-34502438D02*
X147785714Y-34550057D01*
X147785714Y-34550057D02*
X147833333Y-34645295D01*
X147833333Y-34645295D02*
X147833333Y-34788152D01*
X147833333Y-34788152D02*
X147785714Y-34883390D01*
X147785714Y-34883390D02*
X147738095Y-34931009D01*
X147738095Y-34931009D02*
X147642857Y-34978628D01*
X147642857Y-34978628D02*
X147261905Y-34978628D01*
X148785714Y-35454819D02*
X148214286Y-35454819D01*
X148500000Y-35454819D02*
X148500000Y-34454819D01*
X148500000Y-34454819D02*
X148404762Y-34597676D01*
X148404762Y-34597676D02*
X148309524Y-34692914D01*
X148309524Y-34692914D02*
X148214286Y-34740533D01*
X148095695Y-38178819D02*
X148095695Y-38988342D01*
X148095695Y-38988342D02*
X148143314Y-39083580D01*
X148143314Y-39083580D02*
X148190933Y-39131200D01*
X148190933Y-39131200D02*
X148286171Y-39178819D01*
X148286171Y-39178819D02*
X148476647Y-39178819D01*
X148476647Y-39178819D02*
X148571885Y-39131200D01*
X148571885Y-39131200D02*
X148619504Y-39083580D01*
X148619504Y-39083580D02*
X148667123Y-38988342D01*
X148667123Y-38988342D02*
X148667123Y-38178819D01*
X149095695Y-38274057D02*
X149143314Y-38226438D01*
X149143314Y-38226438D02*
X149238552Y-38178819D01*
X149238552Y-38178819D02*
X149476647Y-38178819D01*
X149476647Y-38178819D02*
X149571885Y-38226438D01*
X149571885Y-38226438D02*
X149619504Y-38274057D01*
X149619504Y-38274057D02*
X149667123Y-38369295D01*
X149667123Y-38369295D02*
X149667123Y-38464533D01*
X149667123Y-38464533D02*
X149619504Y-38607390D01*
X149619504Y-38607390D02*
X149048076Y-39178819D01*
X149048076Y-39178819D02*
X149667123Y-39178819D01*
D11*
X150329858Y-64860555D02*
X150472715Y-64908174D01*
X150472715Y-64908174D02*
X150520334Y-64955793D01*
X150520334Y-64955793D02*
X150567953Y-65051031D01*
X150567953Y-65051031D02*
X150567953Y-65193888D01*
X150567953Y-65193888D02*
X150520334Y-65289126D01*
X150520334Y-65289126D02*
X150472715Y-65336746D01*
X150472715Y-65336746D02*
X150377477Y-65384365D01*
X150377477Y-65384365D02*
X149996525Y-65384365D01*
X149996525Y-65384365D02*
X149996525Y-64384365D01*
X149996525Y-64384365D02*
X150329858Y-64384365D01*
X150329858Y-64384365D02*
X150425096Y-64431984D01*
X150425096Y-64431984D02*
X150472715Y-64479603D01*
X150472715Y-64479603D02*
X150520334Y-64574841D01*
X150520334Y-64574841D02*
X150520334Y-64670079D01*
X150520334Y-64670079D02*
X150472715Y-64765317D01*
X150472715Y-64765317D02*
X150425096Y-64812936D01*
X150425096Y-64812936D02*
X150329858Y-64860555D01*
X150329858Y-64860555D02*
X149996525Y-64860555D01*
X150948906Y-64479603D02*
X150996525Y-64431984D01*
X150996525Y-64431984D02*
X151091763Y-64384365D01*
X151091763Y-64384365D02*
X151329858Y-64384365D01*
X151329858Y-64384365D02*
X151425096Y-64431984D01*
X151425096Y-64431984D02*
X151472715Y-64479603D01*
X151472715Y-64479603D02*
X151520334Y-64574841D01*
X151520334Y-64574841D02*
X151520334Y-64670079D01*
X151520334Y-64670079D02*
X151472715Y-64812936D01*
X151472715Y-64812936D02*
X150901287Y-65384365D01*
X150901287Y-65384365D02*
X151520334Y-65384365D01*
D10*
X109148066Y-38111219D02*
X109148066Y-38825504D01*
X109148066Y-38825504D02*
X109100447Y-38968361D01*
X109100447Y-38968361D02*
X109005209Y-39063600D01*
X109005209Y-39063600D02*
X108862352Y-39111219D01*
X108862352Y-39111219D02*
X108767114Y-39111219D01*
X109576638Y-38206457D02*
X109624257Y-38158838D01*
X109624257Y-38158838D02*
X109719495Y-38111219D01*
X109719495Y-38111219D02*
X109957590Y-38111219D01*
X109957590Y-38111219D02*
X110052828Y-38158838D01*
X110052828Y-38158838D02*
X110100447Y-38206457D01*
X110100447Y-38206457D02*
X110148066Y-38301695D01*
X110148066Y-38301695D02*
X110148066Y-38396933D01*
X110148066Y-38396933D02*
X110100447Y-38539790D01*
X110100447Y-38539790D02*
X109529019Y-39111219D01*
X109529019Y-39111219D02*
X110148066Y-39111219D01*
X110470466Y-63316619D02*
X110470466Y-64030904D01*
X110470466Y-64030904D02*
X110422847Y-64173761D01*
X110422847Y-64173761D02*
X110327609Y-64269000D01*
X110327609Y-64269000D02*
X110184752Y-64316619D01*
X110184752Y-64316619D02*
X110089514Y-64316619D01*
X111470466Y-64316619D02*
X110899038Y-64316619D01*
X111184752Y-64316619D02*
X111184752Y-63316619D01*
X111184752Y-63316619D02*
X111089514Y-63459476D01*
X111089514Y-63459476D02*
X110994276Y-63554714D01*
X110994276Y-63554714D02*
X110899038Y-63602333D01*
D11*
X150552948Y-53352082D02*
X150695805Y-53399701D01*
X150695805Y-53399701D02*
X150743424Y-53447320D01*
X150743424Y-53447320D02*
X150791043Y-53542558D01*
X150791043Y-53542558D02*
X150791043Y-53685415D01*
X150791043Y-53685415D02*
X150743424Y-53780653D01*
X150743424Y-53780653D02*
X150695805Y-53828273D01*
X150695805Y-53828273D02*
X150600567Y-53875892D01*
X150600567Y-53875892D02*
X150219615Y-53875892D01*
X150219615Y-53875892D02*
X150219615Y-52875892D01*
X150219615Y-52875892D02*
X150552948Y-52875892D01*
X150552948Y-52875892D02*
X150648186Y-52923511D01*
X150648186Y-52923511D02*
X150695805Y-52971130D01*
X150695805Y-52971130D02*
X150743424Y-53066368D01*
X150743424Y-53066368D02*
X150743424Y-53161606D01*
X150743424Y-53161606D02*
X150695805Y-53256844D01*
X150695805Y-53256844D02*
X150648186Y-53304463D01*
X150648186Y-53304463D02*
X150552948Y-53352082D01*
X150552948Y-53352082D02*
X150219615Y-53352082D01*
X151743424Y-53875892D02*
X151171996Y-53875892D01*
X151457710Y-53875892D02*
X151457710Y-52875892D01*
X151457710Y-52875892D02*
X151362472Y-53018749D01*
X151362472Y-53018749D02*
X151267234Y-53113987D01*
X151267234Y-53113987D02*
X151171996Y-53161606D01*
D12*
%TO.C,R1*%
X150558986Y-33756542D02*
X151033502Y-33756542D01*
X150558986Y-34801542D02*
X151033502Y-34801542D01*
D13*
%TO.C,U1*%
X118227200Y-29516400D02*
X124727200Y-29516400D01*
X118227200Y-29766400D02*
X118227200Y-29516400D01*
X118227200Y-80516400D02*
X118227200Y-80266400D01*
X124727200Y-28216400D02*
X132727200Y-28216400D01*
X124727200Y-29516400D02*
X124727200Y-28216400D01*
X125067200Y-80516400D02*
X118227200Y-80516400D01*
X132727200Y-28216400D02*
X132727200Y-29516400D01*
X132727200Y-29516400D02*
X139227200Y-29516400D01*
X139227200Y-29516400D02*
X139227200Y-29766400D01*
X139227200Y-80516400D02*
X132387200Y-80516400D01*
X139227200Y-80516400D02*
X139227200Y-80266400D01*
D12*
%TO.C,U2*%
X147527600Y-39724000D02*
X148857600Y-39724000D01*
X147527600Y-41054000D02*
X147527600Y-39724000D01*
X147527600Y-42324000D02*
X147527600Y-50004000D01*
X147527600Y-42324000D02*
X150187600Y-42324000D01*
X147527600Y-50004000D02*
X150187600Y-50004000D01*
X150187600Y-42324000D02*
X150187600Y-50004000D01*
D11*
%TO.C,B2*%
X146571310Y-66819236D02*
X154469491Y-66819236D01*
X154469491Y-66819236D02*
X154469491Y-74848327D01*
X154469491Y-74848327D02*
X146571310Y-74848327D01*
X146571310Y-74848327D02*
X146571310Y-66819236D01*
D12*
%TO.C,J2*%
X107303200Y-38250000D02*
X106033200Y-38250000D01*
X107303200Y-36980000D02*
X107303200Y-38250000D01*
X104990271Y-34820000D02*
X104593200Y-34820000D01*
X104990271Y-34060000D02*
X104593200Y-34060000D01*
X104923200Y-37360000D02*
X104593200Y-37360000D01*
X104923200Y-36600000D02*
X104593200Y-36600000D01*
X104593200Y-38310000D02*
X104593200Y-33110000D01*
X104593200Y-35710000D02*
X101933200Y-35710000D01*
X104593200Y-33110000D02*
X101933200Y-33110000D01*
X101933200Y-38310000D02*
X104593200Y-38310000D01*
X101933200Y-37360000D02*
X95933200Y-37360000D01*
X101933200Y-37300000D02*
X95933200Y-37300000D01*
X101933200Y-37180000D02*
X95933200Y-37180000D01*
X101933200Y-37060000D02*
X95933200Y-37060000D01*
X101933200Y-36940000D02*
X95933200Y-36940000D01*
X101933200Y-36820000D02*
X95933200Y-36820000D01*
X101933200Y-36700000D02*
X95933200Y-36700000D01*
X101933200Y-34820000D02*
X95933200Y-34820000D01*
X101933200Y-33110000D02*
X101933200Y-38310000D01*
X95933200Y-37360000D02*
X95933200Y-36600000D01*
X95933200Y-36600000D02*
X101933200Y-36600000D01*
X95933200Y-34820000D02*
X95933200Y-34060000D01*
X95933200Y-34060000D02*
X101933200Y-34060000D01*
%TO.C,J1*%
X108270000Y-64050000D02*
X107000000Y-64050000D01*
X108270000Y-62780000D02*
X108270000Y-64050000D01*
X105957071Y-60620000D02*
X105560000Y-60620000D01*
X105957071Y-59860000D02*
X105560000Y-59860000D01*
X105957071Y-58080000D02*
X105560000Y-58080000D01*
X105957071Y-57320000D02*
X105560000Y-57320000D01*
X105957071Y-55540000D02*
X105560000Y-55540000D01*
X105957071Y-54780000D02*
X105560000Y-54780000D01*
X105957071Y-53000000D02*
X105560000Y-53000000D01*
X105957071Y-52240000D02*
X105560000Y-52240000D01*
X105957071Y-50460000D02*
X105560000Y-50460000D01*
X105957071Y-49700000D02*
X105560000Y-49700000D01*
X105957071Y-47920000D02*
X105560000Y-47920000D01*
X105957071Y-47160000D02*
X105560000Y-47160000D01*
X105957071Y-45380000D02*
X105560000Y-45380000D01*
X105957071Y-44620000D02*
X105560000Y-44620000D01*
X105890000Y-63160000D02*
X105560000Y-63160000D01*
X105890000Y-62400000D02*
X105560000Y-62400000D01*
X105560000Y-64110000D02*
X105560000Y-43670000D01*
X105560000Y-61510000D02*
X102900000Y-61510000D01*
X105560000Y-58970000D02*
X102900000Y-58970000D01*
X105560000Y-56430000D02*
X102900000Y-56430000D01*
X105560000Y-53890000D02*
X102900000Y-53890000D01*
X105560000Y-51350000D02*
X102900000Y-51350000D01*
X105560000Y-48810000D02*
X102900000Y-48810000D01*
X105560000Y-46270000D02*
X102900000Y-46270000D01*
X105560000Y-43670000D02*
X102900000Y-43670000D01*
X102900000Y-64110000D02*
X105560000Y-64110000D01*
X102900000Y-63160000D02*
X96900000Y-63160000D01*
X102900000Y-63100000D02*
X96900000Y-63100000D01*
X102900000Y-62980000D02*
X96900000Y-62980000D01*
X102900000Y-62860000D02*
X96900000Y-62860000D01*
X102900000Y-62740000D02*
X96900000Y-62740000D01*
X102900000Y-62620000D02*
X96900000Y-62620000D01*
X102900000Y-62500000D02*
X96900000Y-62500000D01*
X102900000Y-60620000D02*
X96900000Y-60620000D01*
X102900000Y-58080000D02*
X96900000Y-58080000D01*
X102900000Y-55540000D02*
X96900000Y-55540000D01*
X102900000Y-53000000D02*
X96900000Y-53000000D01*
X102900000Y-50460000D02*
X96900000Y-50460000D01*
X102900000Y-47920000D02*
X96900000Y-47920000D01*
X102900000Y-45380000D02*
X96900000Y-45380000D01*
X102900000Y-43670000D02*
X102900000Y-64110000D01*
X96900000Y-63160000D02*
X96900000Y-62400000D01*
X96900000Y-62400000D02*
X102900000Y-62400000D01*
X96900000Y-60620000D02*
X96900000Y-59860000D01*
X96900000Y-59860000D02*
X102900000Y-59860000D01*
X96900000Y-58080000D02*
X96900000Y-57320000D01*
X96900000Y-57320000D02*
X102900000Y-57320000D01*
X96900000Y-55540000D02*
X96900000Y-54780000D01*
X96900000Y-54780000D02*
X102900000Y-54780000D01*
X96900000Y-53000000D02*
X96900000Y-52240000D01*
X96900000Y-52240000D02*
X102900000Y-52240000D01*
X96900000Y-50460000D02*
X96900000Y-49700000D01*
X96900000Y-49700000D02*
X102900000Y-49700000D01*
X96900000Y-47920000D02*
X96900000Y-47160000D01*
X96900000Y-47160000D02*
X102900000Y-47160000D01*
X96900000Y-45380000D02*
X96900000Y-44620000D01*
X96900000Y-44620000D02*
X102900000Y-44620000D01*
D11*
%TO.C,B1*%
X146774510Y-55135236D02*
X154672691Y-55135236D01*
X154672691Y-55135236D02*
X154672691Y-63164327D01*
X154672691Y-63164327D02*
X146774510Y-63164327D01*
X146774510Y-63164327D02*
X146774510Y-55135236D01*
%TD*%
%LPC*%
D14*
%TO.C,H4*%
X154000000Y-26000000D03*
%TD*%
%TO.C,H3*%
X154000000Y-82000000D03*
%TD*%
%TO.C,H2*%
X107000000Y-82000000D03*
%TD*%
%TO.C,H1*%
X107000000Y-26000000D03*
%TD*%
D15*
%TO.C,R1*%
X149971244Y-34279042D03*
X151621244Y-34279042D03*
%TD*%
D16*
%TO.C,U1*%
X119837200Y-30886400D03*
X119837200Y-33426400D03*
D17*
X119837200Y-35966400D03*
D16*
X119837200Y-38506400D03*
X119837200Y-41046400D03*
X119837200Y-43586400D03*
X119837200Y-46126400D03*
D17*
X119837200Y-48666400D03*
D16*
X119837200Y-51206400D03*
X119837200Y-53746400D03*
X119837200Y-56286400D03*
X119837200Y-58826400D03*
D17*
X119837200Y-61366400D03*
D16*
X119837200Y-63906400D03*
X119837200Y-66446400D03*
X119879081Y-68986400D03*
X119837200Y-71526400D03*
D17*
X119837200Y-74066400D03*
D16*
X119837200Y-76606400D03*
X119837200Y-79146400D03*
X137617200Y-79146400D03*
X137617200Y-76606400D03*
D17*
X137617200Y-74066400D03*
D16*
X137617200Y-71526400D03*
X137617200Y-68986400D03*
X137617200Y-66446400D03*
X137617200Y-63906400D03*
D17*
X137617200Y-61366400D03*
D16*
X137617200Y-58826400D03*
X137617200Y-56286400D03*
X137617200Y-53746400D03*
X137617200Y-51206400D03*
D17*
X137617200Y-48666400D03*
D16*
X137617200Y-46126400D03*
X137617200Y-43586400D03*
X137617200Y-41046400D03*
X137617200Y-38506400D03*
D17*
X137617200Y-35966400D03*
D16*
X137617200Y-33426400D03*
X137617200Y-30886400D03*
%TD*%
D18*
%TO.C,U2*%
X148857600Y-41054000D03*
D19*
X148857600Y-43594000D03*
X148857600Y-46134000D03*
X148857600Y-48674000D03*
%TD*%
D16*
%TO.C,B2*%
X148011310Y-68302873D03*
X148011310Y-73382873D03*
X153091310Y-73382873D03*
X153091310Y-68302873D03*
%TD*%
D18*
%TO.C,J2*%
X106033200Y-36980000D03*
D19*
X106033200Y-34440000D03*
%TD*%
D18*
%TO.C,J1*%
X107000000Y-62780000D03*
D19*
X107000000Y-60240000D03*
X107000000Y-57700000D03*
X107000000Y-55160000D03*
X107000000Y-52620000D03*
X107000000Y-50080000D03*
X107000000Y-47540000D03*
X107000000Y-45000000D03*
%TD*%
D16*
%TO.C,B1*%
X148214510Y-56618873D03*
X148214510Y-61698873D03*
X153294510Y-61698873D03*
X153294510Y-56618873D03*
%TD*%
%LPD*%
D20*
X102260400Y-21386800D02*
X159207200Y-21386800D01*
X159207200Y-85648800D01*
X102260400Y-85648800D01*
X102260400Y-21386800D01*
M02*
